# xmcd
#
# Track frame offsets:
#	150
#	29747
#	56177
#	79404
#
# Disc length: 1454 seconds
#
# Revision: 1
# Processed by: cddbd v1.5.2PL0 Copyright (c) Steve Scherf et al.
# Submitted via: audiograbber 1.83.01
#
DISCID=3605ac04
DTITLE=Waldo's People Feat. Herbie - Bounce (To The Rhythm Divine) (Remixes) (C
DTITLE=DM)
DYEAR=2000
DGENRE=Trance
TTITLE0=Bounce (To The Rhythm Divine) (Original Extended)
TTITLE1=Bounce (To The Rhythm Divine) (Soundfreak Remix)
TTITLE2=Bounce (To The Rhythm Divine) (VP9K Edit)
TTITLE3=Bounce (To The Rhythm Divine) (Subliner's Trance Edit)
EXTD=TR.
EXTT0=
EXTT1=
EXTT2=
EXTT3=
PLAYORDER=
